<mxfile host="app.diagrams.net" modified="2021-11-09T02:57:12.044Z" agent="5.0 (Macintosh; Intel Mac OS X 10_15_7) AppleWebKit/537.36 (KHTML, like Gecko) Chrome/95.0.4638.69 Safari/537.36" etag="Lxv4AFe3krTNINxUCtd-" version="15.7.0" type="github">
  <diagram id="L5--w51cDrGdBatEBchr" name="Page-1">
    <mxGraphModel dx="1298" dy="841" grid="1" gridSize="10" guides="1" tooltips="1" connect="1" arrows="1" fold="1" page="1" pageScale="1" pageWidth="827" pageHeight="1169" math="0" shadow="0">
      <root>
        <mxCell id="0" />
        <mxCell id="1" parent="0" />
        <mxCell id="M6F2418os_bE7MIvvbno-8" style="edgeStyle=orthogonalEdgeStyle;rounded=0;orthogonalLoop=1;jettySize=auto;html=1;entryX=0.5;entryY=0;entryDx=0;entryDy=0;fontColor=#474747;" edge="1" parent="1" source="M6F2418os_bE7MIvvbno-1" target="M6F2418os_bE7MIvvbno-4">
          <mxGeometry relative="1" as="geometry" />
        </mxCell>
        <mxCell id="M6F2418os_bE7MIvvbno-11" style="edgeStyle=orthogonalEdgeStyle;rounded=0;orthogonalLoop=1;jettySize=auto;html=1;entryX=0.5;entryY=0;entryDx=0;entryDy=0;fontColor=#474747;" edge="1" parent="1" source="M6F2418os_bE7MIvvbno-1" target="M6F2418os_bE7MIvvbno-3">
          <mxGeometry relative="1" as="geometry" />
        </mxCell>
        <mxCell id="M6F2418os_bE7MIvvbno-1" value="slb-inner(vip)" style="rounded=1;whiteSpace=wrap;html=1;fillColor=#e1d5e7;strokeColor=#9673a6;" vertex="1" parent="1">
          <mxGeometry x="307" y="260" width="110" height="40" as="geometry" />
        </mxCell>
        <mxCell id="M6F2418os_bE7MIvvbno-9" style="edgeStyle=orthogonalEdgeStyle;rounded=0;orthogonalLoop=1;jettySize=auto;html=1;entryX=0.5;entryY=0;entryDx=0;entryDy=0;entryPerimeter=0;fontColor=#474747;" edge="1" parent="1" source="M6F2418os_bE7MIvvbno-3" target="M6F2418os_bE7MIvvbno-6">
          <mxGeometry relative="1" as="geometry" />
        </mxCell>
        <mxCell id="M6F2418os_bE7MIvvbno-3" value="docker" style="rounded=1;whiteSpace=wrap;html=1;fillColor=#d5e8d4;strokeColor=#82b366;" vertex="1" parent="1">
          <mxGeometry x="210" y="360" width="100" height="40" as="geometry" />
        </mxCell>
        <mxCell id="M6F2418os_bE7MIvvbno-12" value="" style="edgeStyle=orthogonalEdgeStyle;rounded=0;orthogonalLoop=1;jettySize=auto;html=1;fontColor=#474747;endArrow=none;endFill=0;" edge="1" parent="1" source="M6F2418os_bE7MIvvbno-4" target="M6F2418os_bE7MIvvbno-3">
          <mxGeometry relative="1" as="geometry" />
        </mxCell>
        <mxCell id="M6F2418os_bE7MIvvbno-4" value="docker" style="rounded=1;whiteSpace=wrap;html=1;fillColor=#d5e8d4;strokeColor=#82b366;" vertex="1" parent="1">
          <mxGeometry x="410" y="360" width="140" height="40" as="geometry" />
        </mxCell>
        <mxCell id="M6F2418os_bE7MIvvbno-5" value="&lt;font color=&quot;#474747&quot;&gt;mysql&lt;/font&gt;" style="shape=cylinder3;whiteSpace=wrap;html=1;boundedLbl=1;backgroundOutline=1;size=15;dashed=1;" vertex="1" parent="1">
          <mxGeometry x="240" y="461" width="60" height="60" as="geometry" />
        </mxCell>
        <mxCell id="M6F2418os_bE7MIvvbno-6" value="redis" style="shape=cylinder3;whiteSpace=wrap;html=1;boundedLbl=1;backgroundOutline=1;size=15;fillColor=#dae8fc;strokeColor=#6c8ebf;" vertex="1" parent="1">
          <mxGeometry x="330" y="461" width="60" height="60" as="geometry" />
        </mxCell>
      </root>
    </mxGraphModel>
  </diagram>
</mxfile>
